<?xml version="1.0" encoding="utf-8"?>
<!-- Generator: Adobe Illustrator 15.1.0, SVG Export Plug-In  -->
<!DOCTYPE svg PUBLIC "-//W3C//DTD SVG 1.1//EN" "http://www.w3.org/Graphics/SVG/1.1/DTD/svg11.dtd" [
	<!ENTITY ns_flows "http://ns.adobe.com/Flows/1.0/">
]>
<svg version="1.1"
	 xmlns="http://www.w3.org/2000/svg" xmlns:xlink="http://www.w3.org/1999/xlink" xmlns:a="http://ns.adobe.com/AdobeSVGViewerExtensions/3.0/"
	 x="0px" y="0px" width="232px" height="22px" viewBox="0 0 232 22" overflow="visible" enable-background="new 0 0 232 22"
	 xml:space="preserve">
<defs>
</defs>
<polygon fill-rule="evenodd" clip-rule="evenodd" fill="#EF3E42" points="0,21.773 0,0 10.662,0 10.662,21.773 0,21.773 "/>
<polygon fill-rule="evenodd" clip-rule="evenodd" fill="#EF3E42" points="34.314,21.773 34.314,0 44.978,0 44.978,21.773 
	34.314,21.773 "/>
<path fill-rule="evenodd" clip-rule="evenodd" fill="#EF3E42" d="M21.024,4.58l1.502-3.153l1.501,3.003
	c0.226,0.301,0.376,0.301,0.677,0.15l1.275-0.676l-0.825,4.205c-0.226,0.825,0.3,1.051,0.751,0.525l1.877-2.027l0.45,1.126
	c0.226,0.376,0.451,0.301,0.751,0.226l1.952-0.376L30.26,9.986v0.075c-0.075,0.3-0.225,0.525,0.15,0.677l0.676,0.375l-3.979,3.304
	c-0.375,0.45-0.226,0.601-0.075,1.051l0.376,1.126l-3.68-0.676c-0.45-0.151-0.751-0.151-0.826,0.226l0.15,4.204H22l0.15-4.204
	c0-0.377-0.375-0.377-1.126-0.226l-3.379,0.676l0.45-1.126c0.15-0.45,0.226-0.752-0.15-1.051l-4.054-3.229l0.75-0.45
	c0.226-0.227,0.226-0.377,0.15-0.752l-0.751-2.479l1.953,0.451c0.525,0.15,0.676,0,0.825-0.301l0.526-1.126l1.877,2.178
	c0.375,0.375,0.825,0.15,0.675-0.451l-0.9-4.505l1.427,0.826c0.226,0.15,0.45,0.15,0.601-0.075V4.58L21.024,4.58z"/>
<path fill-rule="evenodd" clip-rule="evenodd" fill="#231F20" d="M70.507,8.109c-0.676,0.901-1.803,1.351-2.854,1.351
	c-2.703-0.074-4.28-2.177-4.28-4.579c0-2.554,1.427-4.807,4.28-4.807c1.952,0,3.529,0.826,3.829,2.929h-1.201
	c-0.226-1.352-1.276-1.952-2.628-1.952c-2.178,0-3.079,1.878-3.079,3.83c0,1.802,1.052,3.528,3.079,3.528
	c1.802,0,2.928-1.276,2.854-2.929h-2.854V4.505h3.904v4.73h-0.751L70.507,8.109L70.507,8.109z"/>
<path fill-rule="evenodd" clip-rule="evenodd" fill="#231F20" d="M73.961,6.007c0-1.577,0.9-2.479,1.952-2.479
	c1.126,0,2.027,0.901,2.027,2.479c0,1.501-0.901,2.402-2.027,2.402C74.861,8.409,73.961,7.508,73.961,6.007L73.961,6.007z
	 M72.834,6.007c0,1.877,1.051,3.379,3.079,3.379c2.102,0,3.153-1.502,3.153-3.379c0-1.952-1.052-3.454-3.153-3.454
	C73.885,2.553,72.834,4.055,72.834,6.007L72.834,6.007z"/>
<polygon fill-rule="evenodd" clip-rule="evenodd" fill="#231F20" points="83.271,9.235 82.145,9.235 79.742,2.703 80.868,2.703 
	82.745,8.109 82.745,8.109 84.473,2.703 85.599,2.703 83.271,9.235 "/>
<path fill-rule="evenodd" clip-rule="evenodd" fill="#231F20" d="M87.4,5.331c0.075-0.977,0.676-1.803,1.803-1.803
	c1.051,0,1.802,0.826,1.877,1.803H87.4L87.4,5.331z M91.08,7.133c-0.226,0.826-0.826,1.276-1.728,1.276
	c-1.351,0-2.026-0.976-1.952-2.103h4.806c0.075-1.576-0.601-3.754-2.928-3.754c-1.728,0-3.004,1.502-3.004,3.379
	c0,2.027,0.976,3.454,3.078,3.454c1.427,0,2.479-0.826,2.778-2.253H91.08L91.08,7.133z"/>
<path fill-rule="evenodd" clip-rule="evenodd" fill="#231F20" d="M93.258,2.703h1.051V4.13l0,0c0.525-1.052,1.202-1.577,2.403-1.577
	v1.126c-1.728,0-2.403,0.977-2.403,2.628v2.929h-1.051V2.703L93.258,2.703z"/>
<path fill-rule="evenodd" clip-rule="evenodd" fill="#231F20" d="M97.462,2.703h1.052v1.051l0,0c0.45-0.825,1.201-1.201,2.103-1.201
	c1.727,0,2.252,0.976,2.252,2.402v4.28h-1.126v-4.43c0-0.751-0.45-1.277-1.276-1.277c-1.276,0-1.952,0.826-1.952,2.027v3.68h-1.052
	V2.703L97.462,2.703z"/>
<path fill-rule="evenodd" clip-rule="evenodd" fill="#231F20" d="M104.445,2.703h0.977v0.976h0.074
	c0.451-0.75,1.201-1.126,2.027-1.126s1.577,0.376,1.803,1.126c0.45-0.676,1.201-1.126,2.027-1.126c1.276,0,2.178,0.601,2.178,1.952
	v4.73h-1.052v-4.28c0-0.825-0.226-1.427-1.276-1.427c-1.052,0-1.728,0.676-1.728,1.652v4.055h-1.051v-4.28
	c0-0.825-0.225-1.427-1.201-1.427c-1.276,0-1.728,1.127-1.728,1.652v4.055h-1.051V2.703L104.445,2.703z"/>
<path fill-rule="evenodd" clip-rule="evenodd" fill="#231F20" d="M115.858,5.331c0.075-0.977,0.751-1.803,1.877-1.803
	c1.051,0,1.803,0.826,1.877,1.803H115.858L115.858,5.331z M119.612,7.133c-0.225,0.826-0.826,1.276-1.727,1.276
	c-1.427,0-2.027-0.976-2.027-2.103h4.88c0.076-1.576-0.675-3.754-2.928-3.754c-1.802,0-3.078,1.502-3.078,3.379
	c0.075,2.027,1.051,3.454,3.153,3.454c1.427,0,2.479-0.826,2.778-2.253H119.612L119.612,7.133z"/>
<path fill-rule="evenodd" clip-rule="evenodd" fill="#231F20" d="M121.865,2.703h0.977v1.051l0,0
	c0.45-0.825,1.201-1.201,2.102-1.201c1.728,0,2.253,0.976,2.253,2.402v4.28h-1.051v-4.43c0-0.751-0.525-1.277-1.352-1.277
	c-1.277,0-1.878,0.826-1.878,2.027v3.68h-1.051V2.703L121.865,2.703z"/>
<path fill-rule="evenodd" clip-rule="evenodd" fill="#231F20" d="M130.275,2.703h1.276v0.976h-1.276v3.979
	c0,0.526,0.149,0.601,0.826,0.601h0.45v0.977h-0.826c-1.051,0-1.501-0.225-1.501-1.427v-4.13h-1.127V2.703h1.127V0.826h1.051V2.703
	L130.275,2.703z"/>
<path fill-rule="evenodd" clip-rule="evenodd" fill="#231F20" d="M64.425,18.47c0-1.576,0.9-2.401,2.026-2.401
	c1.127,0,2.027,0.825,2.027,2.401c0,1.579-0.9,2.479-2.027,2.479C65.325,20.949,64.425,20.049,64.425,18.47L64.425,18.47z
	 M63.298,18.47c0,1.878,1.127,3.379,3.153,3.379c2.027,0,3.154-1.501,3.154-3.379c0-1.876-1.127-3.377-3.154-3.377
	C64.425,15.093,63.298,16.594,63.298,18.47L63.298,18.47z"/>
<path fill-rule="evenodd" clip-rule="evenodd" fill="#231F20" d="M71.257,16.219h-1.051v-0.978h1.051v-0.976
	c0-1.051,0.676-1.576,1.803-1.576c0.226,0,0.525,0.075,0.676,0.075v0.976c-0.15-0.075-0.376-0.15-0.601-0.15
	c-0.526,0-0.826,0.226-0.826,0.751v0.9h1.276v0.978h-1.276V21.7h-1.052V16.219L71.257,16.219z"/>
<path fill-rule="evenodd" clip-rule="evenodd" fill="#231F20" d="M84.473,15.468c-0.226-1.277-1.276-1.878-2.479-1.878
	c-2.177,0-3.078,1.727-3.078,3.605c0,2.026,0.901,3.754,3.078,3.754c1.577,0,2.479-1.127,2.554-2.628h1.201
	c-0.226,2.253-1.577,3.604-3.829,3.604c-2.778,0-4.13-2.027-4.13-4.654c0-2.555,1.427-4.656,4.204-4.656
	c1.878-0.075,3.379,0.976,3.68,2.854H84.473L84.473,15.468z"/>
<path fill-rule="evenodd" clip-rule="evenodd" fill="#231F20" d="M91.08,19.447c0,0.602-0.601,1.502-2.027,1.502
	c-0.601,0-1.201-0.3-1.201-0.977c0-0.751,0.601-1.051,1.276-1.126c0.751-0.15,1.502-0.15,1.952-0.45V19.447L91.08,19.447z
	 M92.807,20.873c-0.15,0.076-0.225,0.076-0.375,0.076c-0.301,0-0.301-0.227-0.301-0.752v-3.304c0-1.501-1.276-1.801-2.402-1.801
	c-1.502,0-2.703,0.601-2.778,2.178h1.052c0.074-0.978,0.75-1.202,1.651-1.202c0.676,0,1.427,0.15,1.427,1.051
	c0,0.825-0.976,0.752-2.178,0.976c-1.126,0.227-2.178,0.526-2.178,1.954c0,1.274,0.977,1.8,2.103,1.8
	c0.901,0,1.727-0.299,2.328-0.976c0,0.677,0.3,0.976,0.901,0.976c0.3,0,0.525-0.075,0.75-0.148V20.873L92.807,20.873z"/>
<path fill-rule="evenodd" clip-rule="evenodd" fill="#231F20" d="M93.783,15.241h0.976v1.052h0.075c0.451-0.825,1.127-1.2,2.103-1.2
	c1.652,0,2.178,0.976,2.178,2.401V21.7h-1.051v-4.354c0-0.827-0.526-1.277-1.277-1.277c-1.352,0-1.952,0.825-1.952,2.026V21.7
	h-1.051V15.241L93.783,15.241z"/>
<path fill-rule="evenodd" clip-rule="evenodd" fill="#231F20" d="M104.746,19.447c0,0.602-0.601,1.502-1.952,1.502
	c-0.676,0-1.277-0.3-1.277-0.977c0-0.751,0.602-1.051,1.277-1.126c0.75-0.15,1.501-0.15,1.952-0.45V19.447L104.746,19.447z
	 M106.473,20.873c-0.15,0.076-0.225,0.076-0.301,0.076c-0.375,0-0.375-0.227-0.375-0.752v-3.304c0-1.501-1.276-1.801-2.403-1.801
	c-1.426,0-2.702,0.601-2.777,2.178h1.051c0.075-0.978,0.751-1.202,1.652-1.202c0.676,0,1.427,0.15,1.427,1.051
	c0,0.825-0.977,0.752-2.178,0.976c-1.126,0.227-2.178,0.526-2.178,1.954c0,1.274,0.977,1.8,2.103,1.8c0.9,0,1.727-0.299,2.327-0.976
	c0,0.677,0.301,0.976,0.901,0.976c0.301,0,0.526-0.075,0.751-0.148V20.873L106.473,20.873z"/>
<path fill-rule="evenodd" clip-rule="evenodd" fill="#231F20" d="M108.2,18.545c0-1.274,0.525-2.477,1.951-2.477
	c1.503,0,2.028,1.127,2.028,2.401c0,1.202-0.525,2.479-1.952,2.479C108.876,20.949,108.2,19.747,108.2,18.545L108.2,18.545z
	 M113.23,12.765h-1.051v3.379l0,0c-0.525-0.827-1.427-1.051-2.103-1.051c-2.027,0-3.004,1.576-3.004,3.377
	c0,1.803,1.052,3.379,3.004,3.379c0.901,0,1.727-0.299,2.103-0.976l0,0V21.7h1.051V12.765L113.23,12.765z"/>
<path fill-rule="evenodd" clip-rule="evenodd" fill="#231F20" d="M118.861,19.447c0,0.602-0.525,1.502-1.952,1.502
	c-0.676,0-1.275-0.3-1.275-0.977c0-0.751,0.6-1.051,1.351-1.126c0.677-0.15,1.503-0.15,1.877-0.45V19.447L118.861,19.447z
	 M120.589,20.873c-0.15,0.076-0.225,0.076-0.3,0.076c-0.376,0-0.376-0.227-0.376-0.752v-3.304c0-1.501-1.201-1.801-2.402-1.801
	c-1.427,0-2.703,0.601-2.703,2.178h1.051c0-0.978,0.676-1.202,1.576-1.202c0.677,0,1.427,0.15,1.427,1.051
	c0,0.825-0.976,0.752-2.177,0.976c-1.051,0.227-2.178,0.526-2.178,1.954c0,1.274,0.977,1.8,2.178,1.8
	c0.901,0,1.651-0.299,2.253-0.976c0,0.677,0.375,0.976,0.901,0.976c0.374,0,0.6-0.075,0.75-0.148V20.873L120.589,20.873z"/>
<path fill-rule="evenodd" clip-rule="evenodd" fill="#231F20" d="M157.682,8.185c-0.751,0.9-1.878,1.352-2.929,1.352
	c-2.627,0-4.205-2.178-4.205-4.506c0-2.628,1.427-4.88,4.205-4.88c1.952,0,3.529,0.9,3.904,2.928h-1.201
	c-0.226-1.352-1.352-1.952-2.703-1.952c-2.102,0-3.003,1.877-3.003,3.829c0,1.877,1.051,3.529,3.003,3.529
	c1.877,0,3.004-1.276,2.929-2.929h-2.854V4.58h3.905v4.73h-0.752L157.682,8.185L157.682,8.185z"/>
<path fill-rule="evenodd" clip-rule="evenodd" fill="#231F20" d="M161.061,6.082c0-1.577,0.901-2.479,2.027-2.479
	s2.027,0.901,2.027,2.479c0,1.576-0.901,2.402-2.027,2.402S161.061,7.658,161.061,6.082L161.061,6.082z M159.934,6.082
	c0,1.877,1.127,3.378,3.154,3.378s3.154-1.501,3.154-3.378c0-1.952-1.127-3.379-3.154-3.379S159.934,4.13,159.934,6.082
	L159.934,6.082z"/>
<path fill-rule="evenodd" clip-rule="evenodd" fill="#231F20" d="M172.85,9.311h-1.052V8.259l0,0
	c-0.45,0.826-1.201,1.201-2.103,1.201c-1.728,0-2.253-0.976-2.253-2.402V2.853h1.127v4.355c0,0.751,0.45,1.276,1.275,1.276
	c1.277,0,1.953-0.826,1.953-2.027V2.853h1.052V9.311L172.85,9.311z"/>
<polygon fill-rule="evenodd" clip-rule="evenodd" fill="#231F20" points="177.354,9.311 176.228,9.311 173.825,2.853 175.026,2.853 
	176.828,8.185 176.828,8.185 178.631,2.853 179.682,2.853 177.354,9.311 "/>
<path fill-rule="evenodd" clip-rule="evenodd" fill="#231F20" d="M181.483,5.406c0.075-0.977,0.752-1.803,1.803-1.803
	s1.877,0.826,1.877,1.803H181.483L181.483,5.406z M185.163,7.208c-0.225,0.901-0.826,1.276-1.651,1.276
	c-1.427,0-2.103-0.977-2.028-2.103h4.807c0.075-1.576-0.602-3.679-2.929-3.679c-1.727,0-3.004,1.427-3.004,3.304
	c0.075,2.027,1.052,3.453,3.078,3.453c1.427,0,2.479-0.825,2.778-2.252H185.163L185.163,7.208z"/>
<path fill-rule="evenodd" clip-rule="evenodd" fill="#231F20" d="M187.341,2.853h1.051v1.352l0,0
	c0.525-1.051,1.202-1.576,2.403-1.501v1.126c-1.728,0-2.328,0.977-2.328,2.553v2.929h-1.126V2.853L187.341,2.853z"/>
<path fill-rule="evenodd" clip-rule="evenodd" fill="#231F20" d="M191.546,2.853h1.051v0.977l0,0
	c0.45-0.751,1.202-1.126,2.102-1.126c1.728,0,2.253,0.976,2.253,2.327v4.28H195.9v-4.43c0-0.751-0.525-1.277-1.352-1.277
	c-1.276,0-1.877,0.901-1.877,2.027v3.68h-1.126V2.853L191.546,2.853z"/>
<path fill-rule="evenodd" clip-rule="evenodd" fill="#231F20" d="M199.279,5.406c0.075-0.977,0.751-1.803,1.877-1.803
	c1.052,0,1.803,0.826,1.877,1.803H199.279L199.279,5.406z M203.033,7.208c-0.225,0.901-0.825,1.276-1.726,1.276
	c-1.427,0-2.028-0.977-2.028-2.103h4.881c0.075-1.576-0.676-3.679-2.929-3.679c-1.802,0-3.078,1.427-3.078,3.304
	c0.075,2.027,1.051,3.453,3.154,3.453c1.426,0,2.478-0.825,2.777-2.252H203.033L203.033,7.208z"/>
<path fill-rule="evenodd" clip-rule="evenodd" fill="#231F20" d="M205.286,2.853h0.977v0.901l0,0
	c0.525-0.676,1.201-1.051,2.103-1.051c0.825,0,1.502,0.3,1.802,1.051c0.451-0.676,1.201-1.051,2.027-1.051
	c1.276,0,2.102,0.525,2.102,1.877v4.73h-1.051V5.03c0-0.751-0.225-1.427-1.2-1.427c-1.053,0-1.728,0.676-1.728,1.652v4.055h-1.051
	V5.03c0-0.826-0.301-1.427-1.202-1.427c-1.276,0-1.728,1.202-1.728,1.652v4.055h-1.051V2.853L205.286,2.853z"/>
<path fill-rule="evenodd" clip-rule="evenodd" fill="#231F20" d="M216.7,5.406c0.075-0.977,0.75-1.803,1.877-1.803
	c1.051,0,1.801,0.826,1.877,1.803H216.7L216.7,5.406z M220.378,7.208c-0.149,0.901-0.75,1.276-1.651,1.276
	c-1.426,0-2.026-0.977-2.026-2.103h4.88c0-1.576-0.677-3.679-2.928-3.679c-1.803,0-3.079,1.427-3.079,3.304
	c0.075,2.027,1.051,3.453,3.079,3.453c1.501,0,2.478-0.825,2.778-2.252H220.378L220.378,7.208z"/>
<path fill-rule="evenodd" clip-rule="evenodd" fill="#231F20" d="M222.631,2.853h1.051v0.977l0,0
	c0.451-0.751,1.202-1.126,2.104-1.126c1.728,0,2.253,0.976,2.253,2.327v4.28h-1.127v-4.43c0-0.751-0.451-1.277-1.276-1.277
	c-1.276,0-1.953,0.901-1.953,2.027v3.68h-1.051V2.853L222.631,2.853z"/>
<path fill-rule="evenodd" clip-rule="evenodd" fill="#231F20" d="M231.116,2.853h1.276v0.901h-1.276v4.055
	c0,0.45,0.074,0.525,0.751,0.525h0.525v0.977h-0.826c-1.126,0-1.576-0.226-1.576-1.427v-4.13h-1.052V2.853h1.052V0.9h1.126V2.853
	L231.116,2.853z"/>
<path fill-rule="evenodd" clip-rule="evenodd" fill="#231F20" d="M151.6,18.621c0-1.275,0.45-2.478,1.877-2.478
	c1.502,0,2.103,1.127,2.103,2.401c0,1.277-0.601,2.479-2.026,2.479C152.2,21.024,151.6,19.822,151.6,18.621L151.6,18.621z
	 M156.556,12.84h-1.052v3.379l0,0c-0.525-0.751-1.426-1.053-2.103-1.053c-1.952,0-2.928,1.579-2.928,3.379
	c0,1.803,0.976,3.38,2.928,3.38c0.901,0,1.728-0.3,2.103-0.976l0,0v0.824h1.052V12.84L156.556,12.84z"/>
<path fill-rule="evenodd" clip-rule="evenodd" fill="#231F20" d="M163.538,21.773h-0.976v-0.976l0,0
	c-0.45,0.752-1.202,1.127-2.104,1.127c-1.726,0-2.251-0.976-2.251-2.328v-4.28h1.051v4.431c0,0.752,0.525,1.277,1.352,1.277
	c1.275,0,1.877-0.9,1.877-2.027v-3.681h1.051V21.773L163.538,21.773z"/>
<path fill-rule="evenodd" clip-rule="evenodd" fill="#231F20" d="M175.102,15.543c-0.226-1.277-1.276-1.878-2.479-1.878
	c-2.177,0-3.077,1.728-3.077,3.605c0,2.026,0.9,3.754,3.077,3.754c1.578,0,2.479-1.127,2.554-2.555h1.201
	c-0.225,2.18-1.576,3.53-3.829,3.53c-2.778,0-4.13-2.027-4.13-4.654c0-2.555,1.426-4.656,4.204-4.656c1.878,0,3.38,0.976,3.68,2.854
	H175.102L175.102,15.543z"/>
<path fill-rule="evenodd" clip-rule="evenodd" fill="#231F20" d="M181.71,19.522c0,0.602-0.602,1.502-2.028,1.502
	c-0.601,0-1.201-0.227-1.201-0.976c0-0.752,0.601-1.052,1.277-1.127c0.75-0.15,1.501-0.15,1.952-0.452V19.522L181.71,19.522z
	 M183.436,20.949c-0.149,0.075-0.225,0.075-0.374,0.075c-0.301,0-0.301-0.227-0.301-0.752v-3.304c0-1.501-1.277-1.803-2.403-1.803
	c-1.501,0-2.703,0.601-2.778,2.18h1.052c0.074-0.978,0.751-1.202,1.652-1.202c0.675,0,1.427,0.149,1.427,1.052
	c0,0.824-0.977,0.749-2.179,0.976c-1.126,0.226-2.178,0.525-2.178,1.953c0,1.274,0.978,1.801,2.104,1.801
	c0.9,0,1.727-0.3,2.327-0.976c0,0.676,0.301,0.976,0.901,0.976c0.3,0,0.525,0,0.75-0.151V20.949L183.436,20.949z"/>
<path fill-rule="evenodd" clip-rule="evenodd" fill="#231F20" d="M184.413,15.316h0.976v1.052h0.075
	c0.45-0.825,1.126-1.202,2.102-1.202c1.652,0,2.178,0.978,2.178,2.403v4.204h-1.051v-4.354c0-0.75-0.525-1.275-1.276-1.275
	c-1.352,0-1.952,0.825-1.952,2.027v3.603h-1.051V15.316L184.413,15.316z"/>
<path fill-rule="evenodd" clip-rule="evenodd" fill="#231F20" d="M195.375,19.522c0,0.602-0.601,1.502-1.952,1.502
	c-0.677,0-1.276-0.227-1.276-0.976c0-0.752,0.6-1.052,1.276-1.127c0.75-0.15,1.502-0.15,1.952-0.452V19.522L195.375,19.522z
	 M197.103,20.949c-0.151,0.075-0.226,0.075-0.301,0.075c-0.376,0-0.376-0.227-0.376-0.752v-3.304c0-1.501-1.276-1.803-2.402-1.803
	c-1.427,0-2.703,0.601-2.778,2.18h1.051c0.076-0.978,0.751-1.202,1.652-1.202c0.676,0,1.427,0.149,1.427,1.052
	c0,0.824-0.976,0.749-2.178,0.976c-1.126,0.226-2.177,0.525-2.177,1.953c0,1.274,0.976,1.801,2.102,1.801
	c0.901,0,1.728-0.3,2.328-0.976c0,0.676,0.301,0.976,0.901,0.976c0.3,0,0.525,0,0.751-0.151V20.949L197.103,20.949z"/>
<path fill-rule="evenodd" clip-rule="evenodd" fill="#231F20" d="M198.828,18.621c0-1.275,0.526-2.478,1.952-2.478
	c1.503,0,2.028,1.127,2.028,2.401c0,1.277-0.525,2.479-1.952,2.479C199.505,21.024,198.828,19.822,198.828,18.621L198.828,18.621z
	 M203.859,12.84h-1.051v3.379l0,0c-0.525-0.751-1.427-1.053-2.103-1.053c-2.027,0-3.003,1.579-3.003,3.379
	c0,1.803,1.051,3.38,3.003,3.38c0.9,0,1.727-0.3,2.103-0.976l0,0v0.824h1.051V12.84L203.859,12.84z"/>
<path fill-rule="evenodd" clip-rule="evenodd" fill="#231F20" d="M209.491,19.522c0,0.602-0.525,1.502-1.952,1.502
	c-0.677,0-1.276-0.227-1.276-0.976c0-0.752,0.6-1.052,1.352-1.127c0.676-0.15,1.501-0.15,1.877-0.452V19.522L209.491,19.522z
	 M211.219,20.949c-0.151,0.075-0.227,0.075-0.301,0.075c-0.376,0-0.376-0.227-0.376-0.752v-3.304c0-1.501-1.201-1.803-2.402-1.803
	c-1.427,0-2.703,0.601-2.703,2.18h1.052c0-0.978,0.675-1.202,1.576-1.202c0.677,0,1.427,0.149,1.427,1.052
	c0,0.824-0.977,0.749-2.178,0.976c-1.051,0.226-2.177,0.525-2.177,1.953c0,1.274,0.976,1.801,2.177,1.801
	c0.9,0,1.652-0.3,2.253-0.976c0,0.676,0.375,0.976,0.9,0.976c0.376,0,0.601,0,0.752-0.151V20.949L211.219,20.949z"/>
</svg>
